<?xml version="1.0" encoding="UTF-8" standalone="no"?>
<svg width="242px" height="45px" viewBox="0 0 242 45" version="1.1" xmlns="http://www.w3.org/2000/svg" xmlns:xlink="http://www.w3.org/1999/xlink" xmlns:sketch="http://www.bohemiancoding.com/sketch/ns">
    <!-- Generator: Sketch 3.3 (11970) - http://www.bohemiancoding.com/sketch -->
    <title>logo-Relevance</title>
    <desc>Created with Sketch.</desc>
    <defs/>
    <g id="Page-1" stroke="none" stroke-width="1" fill="none" fill-rule="evenodd" sketch:type="MSPage">
        <g id="logo-Relevance" sketch:type="MSLayerGroup">
            <g id="Group" sketch:type="MSShapeGroup">
                <g id="Shape">
                    <g transform="translate(26.000000, 34.000000)" fill="#434244">
                        <path d="M0.7,10 L0.7,1 L4.1,1 C5.8,1 6.8,2.2 6.8,3.6 C6.8,5 5.8,6.2 4.1,6.2 L1.5,6.2 L1.5,10 L0.7,10 L0.7,10 Z M6,3.7 C6,2.6 5.2,1.8 4,1.8 L1.5,1.8 L1.5,5.7 L4,5.7 C5.2,5.6 6,4.8 6,3.7 L6,3.7 Z"/>
                        <path d="M8.8,6.6 L8.8,1 L9.6,1 L9.6,6.5 C9.6,8.3 10.6,9.4 12.3,9.4 C14.1,9.4 15,8.3 15,6.5 L15,1 L15.8,1 L15.8,6.6 C15.8,8.8 14.6,10.2 12.3,10.2 C10,10.2 8.8,8.8 8.8,6.6 L8.8,6.6 Z"/>
                        <path d="M18.4,10 L18.4,1 L22.1,1 C23.6,1 24.6,1.9 24.6,3.3 C24.6,4.4 23.8,5.2 23,5.4 C24,5.5 24.8,6.5 24.8,7.6 C24.8,9.1 23.8,10 22.2,10 L18.4,10 L18.4,10 Z M23.8,3.4 C23.8,2.5 23.2,1.7 22,1.7 L19.2,1.7 L19.2,5 L22,5 C23.2,5.1 23.8,4.3 23.8,3.4 L23.8,3.4 Z M24,7.6 C24,6.7 23.4,5.8 22.1,5.8 L19.2,5.8 L19.2,9.4 L22.1,9.4 C23.3,9.3 24,8.7 24,7.6 L24,7.6 Z"/>
                        <path d="M27.1,10 L27.1,1 L27.9,1 L27.9,9.3 L32.3,9.3 L32.3,10 L27.1,10 L27.1,10 Z"/>
                        <path d="M34.3,10 L34.3,1 L35.1,1 L35.1,10 L34.3,10 L34.3,10 Z"/>
                        <path d="M37.3,5.5 C37.3,2.7 39.3,0.8 41.9,0.8 C43.3,0.8 44.4,1.4 45.2,2.4 L44.6,2.8 C44,2 43,1.5 42,1.5 C39.9,1.5 38.2,3.1 38.2,5.5 C38.2,7.8 39.8,9.5 42,9.5 C43.1,9.5 44.1,9 44.6,8.2 L45.2,8.6 C44.4,9.6 43.3,10.2 41.9,10.2 C39.3,10.2 37.3,8.3 37.3,5.5 L37.3,5.5 Z"/>
                        <path d="M53.6,10 L52.7,7.8 L48,7.8 L47.1,10 L46.2,10 L49.9,1 L50.9,1 L54.6,10 L53.6,10 L53.6,10 Z M50.3,1.9 L48.2,7.2 L52.5,7.2 L50.3,1.9 L50.3,1.9 Z"/>
                        <path d="M57.6,10 L57.6,1.7 L54.7,1.7 L54.7,1 L61.4,1 L61.4,1.7 L58.5,1.7 L58.5,10 L57.6,10 L57.6,10 Z"/>
                        <path d="M63.3,10 L63.3,1 L64.1,1 L64.1,10 L63.3,10 L63.3,10 Z"/>
                        <path d="M66.3,5.5 C66.3,2.9 68,0.8 70.7,0.8 C73.3,0.8 75.1,2.8 75.1,5.5 C75.1,8.1 73.4,10.2 70.7,10.2 C68,10.2 66.3,8.2 66.3,5.5 L66.3,5.5 Z M74.3,5.5 C74.3,3.2 72.9,1.5 70.7,1.5 C68.5,1.5 67.1,3.2 67.1,5.5 C67.1,7.8 68.5,9.5 70.7,9.5 C72.9,9.5 74.3,7.8 74.3,5.5 L74.3,5.5 Z"/>
                        <path d="M83.8,10 L78.1,2.3 L78.1,10 L77.3,10 L77.3,1 L78.1,1 L83.8,8.6 L83.8,1 L84.6,1 L84.6,10 L83.8,10 L83.8,10 Z"/>
                        <path d="M86.9,9.6 C86.9,9.3 87.2,9 87.5,9 C87.8,9 88.1,9.3 88.1,9.6 C88.1,9.9 87.8,10.2 87.5,10.2 C87.2,10.2 86.9,9.9 86.9,9.6 L86.9,9.6 Z"/>
                        <path d="M100.9,10 L100,7.8 L95.2,7.8 L94.3,10 L93.4,10 L97.1,1 L98.1,1 L101.8,10 L100.9,10 L100.9,10 Z M97.6,1.9 L95.5,7.2 L99.8,7.2 L97.6,1.9 L97.6,1.9 Z"/>
                        <path d="M102.6,5.5 C102.6,2.7 104.6,0.8 107.2,0.8 C108.7,0.8 109.8,1.4 110.6,2.3 L110,2.7 C109.4,1.9 108.3,1.4 107.2,1.4 C105.1,1.4 103.4,3 103.4,5.4 C103.4,7.7 105,9.4 107.2,9.4 C108.4,9.4 109.4,8.8 109.9,8.3 L109.9,6.1 L106.5,6.1 L106.5,5.4 L110.7,5.4 L110.7,8.6 C109.9,9.5 108.7,10.1 107.3,10.1 C104.7,10.2 102.6,8.3 102.6,5.5 L102.6,5.5 Z"/>
                        <path d="M112.9,10 L112.9,1 L118.6,1 L118.6,1.7 L113.7,1.7 L113.7,5 L118.6,5 L118.6,5.7 L113.7,5.7 L113.7,9.3 L118.6,9.3 L118.6,10 L112.9,10 L112.9,10 Z"/>
                        <path d="M127.4,10 L121.7,2.3 L121.7,10 L120.9,10 L120.9,1 L121.7,1 L127.4,8.6 L127.4,1 L128.2,1 L128.2,10 L127.4,10 L127.4,10 Z"/>
                        <path d="M130.4,5.5 C130.4,2.7 132.4,0.8 135,0.8 C136.4,0.8 137.5,1.4 138.3,2.4 L137.7,2.8 C137.1,2 136.1,1.5 135.1,1.5 C133,1.5 131.3,3.1 131.3,5.5 C131.3,7.8 132.9,9.5 135.1,9.5 C136.2,9.5 137.2,9 137.7,8.2 L138.3,8.6 C137.5,9.6 136.4,10.2 135,10.2 C132.4,10.2 130.4,8.3 130.4,5.5 L130.4,5.5 Z"/>
                        <path d="M142.7,10 L142.7,6.1 L139.1,0.9 L140,0.9 L143,5.3 L146,0.9 L146.9,0.9 L143.3,6.1 L143.3,10 L142.7,10 L142.7,10 Z"/>
                        <path d="M147.3,9.6 C147.3,9.3 147.6,9 147.9,9 C148.2,9 148.5,9.3 148.5,9.6 C148.5,9.9 148.2,10.2 147.9,10.2 C147.6,10.2 147.3,9.9 147.3,9.6 L147.3,9.6 Z"/>
                        <path d="M154.7,10 L154.7,1 L160.4,1 L160.4,1.7 L155.5,1.7 L155.5,5 L160.4,5 L160.4,5.7 L155.5,5.7 L155.5,9.3 L160.4,9.3 L160.4,10 L154.7,10 L154.7,10 Z"/>
                        <path d="M165.5,10 L161.8,1 L162.7,1 L166,9.2 L169.3,1 L170.2,1 L166.5,10 L165.5,10 L165.5,10 Z"/>
                        <path d="M171.8,10 L171.8,1 L177.5,1 L177.5,1.7 L172.6,1.7 L172.6,5 L177.5,5 L177.5,5.7 L172.6,5.7 L172.6,9.3 L177.5,9.3 L177.5,10 L171.8,10 L171.8,10 Z"/>
                        <path d="M186.3,10 L180.6,2.3 L180.6,10 L179.8,10 L179.8,1 L180.6,1 L186.3,8.6 L186.3,1 L187.1,1 L187.1,10 L186.3,10 L186.3,10 Z"/>
                        <path d="M191.9,10 L191.9,1.7 L189,1.7 L189,1 L195.7,1 L195.7,1.7 L192.8,1.7 L192.8,10 L191.9,10 L191.9,10 Z"/>
                        <path d="M197.1,8.8 L197.6,8.2 C198.2,8.9 199.1,9.5 200.4,9.5 C202.3,9.5 202.8,8.5 202.8,7.7 C202.8,5 197.4,6.4 197.4,3.3 C197.4,1.8 198.7,0.9 200.4,0.9 C201.8,0.9 202.8,1.4 203.5,2.2 L203,2.8 C202.4,2 201.4,1.7 200.4,1.7 C199.2,1.7 198.3,2.4 198.3,3.4 C198.3,5.7 203.7,4.4 203.7,7.8 C203.7,9 202.9,10.4 200.5,10.4 C198.9,10.2 197.8,9.6 197.1,8.8 L197.1,8.8 Z"/>
                        <path d="M205.6,9.6 C205.6,9.3 205.9,9 206.2,9 C206.5,9 206.8,9.3 206.8,9.6 C206.8,9.9 206.5,10.2 206.2,10.2 C205.9,10.2 205.6,9.9 205.6,9.6 L205.6,9.6 Z"/>
                    </g>
                    <path d="M27.1,28.8 L27.1,0.8 L46.9,0.8 L46.9,6 L33,6 L33,12 L46.6,12 L46.6,17.3 L33,17.3 L33,23.6 L46.9,23.6 L46.9,28.9 L27.1,28.9 L27.1,28.8 Z" fill="#256092"/>
                    <path d="M51.6,28.8 L51.6,0.8 L57.6,0.8 L57.6,23.6 L69.4,23.6 L69.4,28.9 L51.6,28.9 L51.6,28.8 Z" fill="#256092"/>
                    <path d="M73.5,28.8 L73.5,0.8 L93.3,0.8 L93.3,6 L79.5,6 L79.5,12 L93.1,12 L93.1,17.3 L79.5,17.3 L79.5,23.6 L93.4,23.6 L93.4,28.9 L73.5,28.9 L73.5,28.8 Z" fill="#256092"/>
                    <path d="M105.9,28.8 L95.1,0.8 L101.9,0.8 L109.7,22.3 L117.4,0.8 L124.2,0.8 L113.4,28.8 L105.9,28.8 L105.9,28.8 Z" fill="#256092"/>
                    <path d="M144.1,28.8 L142.4,24.1 L130.4,24.1 L128.6,28.8 L121.8,28.8 L132.6,0.8 L140.1,0.8 L150.9,28.8 L144.1,28.8 L144.1,28.8 Z M136.4,6.7 L132,18.8 L140.7,18.8 L136.4,6.7 L136.4,6.7 Z" fill="#256092"/>
                    <path d="M172.8,28.8 L159.4,10.5 L159.4,28.8 L153.4,28.8 L153.4,0.8 L159.5,0.8 L172.5,18.4 L172.5,0.8 L178.5,0.8 L178.5,28.8 L172.8,28.8 L172.8,28.8 Z" fill="#256092"/>
                    <path d="M182.8,14.8 C182.8,6.2 189.3,0.3 197.7,0.3 C203.9,0.3 207.4,3.7 209.4,7.1 L204.3,9.6 C203.1,7.3 200.6,5.5 197.7,5.5 C192.6,5.5 188.9,9.4 188.9,14.7 C188.9,20 192.6,23.9 197.7,23.9 C200.6,23.9 203.1,22.1 204.3,19.8 L209.4,22.3 C207.4,25.8 203.9,29.2 197.7,29.2 C189.3,29.3 182.8,23.4 182.8,14.8 L182.8,14.8 Z" fill="#256092"/>
                    <path d="M213,28.8 L213,0.8 L232.8,0.8 L232.8,6 L218.9,6 L218.9,12 L232.5,12 L232.5,17.3 L218.9,17.3 L218.9,23.6 L232.8,23.6 L232.8,28.9 L213,28.9 L213,28.8 Z" fill="#256092"/>
                    <g fill="#256092">
                        <path d="M15.9,28.8 L10.4,18.8 L6,18.8 L6,28.8 L0,28.8 L0,0.8 L13.1,0.8 C18.9,0.8 22.5,4.6 22.5,9.8 C22.5,14.8 19.4,17.4 16.4,18.1 L22.7,28.8 L15.9,28.8 L15.9,28.8 Z M16.5,9.8 C16.5,7.4 14.7,6 12.3,6 L6,6 L6,13.6 L12.3,13.6 C14.7,13.6 16.5,12.2 16.5,9.8 L16.5,9.8 Z"/>
                        <path d="M0.1,39 L22.8,39 L22.8,33.8 L0.1,33.8"/>
                    </g>
                </g>
                <g transform="translate(237.000000, 0.000000)" id="Shape" fill="#434244">
                    <path d="M0.9,3.4 L0.9,1 L0,1 L0,0.8 L2,0.8 L2,1 L1.1,1 L1.1,3.5 L0.9,3.5 L0.9,3.4 Z"/>
                    <path d="M4.7,3.4 L4.7,1 L3.7,3.4 L3.6,3.4 L2.6,1 L2.6,3.4 L2.4,3.4 L2.4,0.7 L2.7,0.7 L3.6,2.9 L4.5,0.7 L4.8,0.7 L4.8,3.4 L4.7,3.4 L4.7,3.4 Z"/>
                </g>
            </g>
        </g>
    </g>
<style xmlns="http://www.w3.org/1999/xhtml" charset="utf-8" type="text/css" class="firebugResetStyles">/* See license.txt for terms of usage */
/** reset styling **/
.firebugResetStyles {
    z-index: 2147483646 !important;
    top: 0 !important;
    left: 0 !important;
    display: block !important;
    border: 0 none !important;
    margin: 0 !important;
    padding: 0 !important;
    outline: 0 !important;
    min-width: 0 !important;
    max-width: none !important;
    min-height: 0 !important;
    max-height: none !important;
    position: fixed !important;
    transform: rotate(0deg) !important;
    transform-origin: 50% 50% !important;
    border-radius: 0 !important;
    box-shadow: none !important;
    background: transparent none !important;
    pointer-events: none !important;
    white-space: normal !important;
}
style.firebugResetStyles {
    display: none !important;
}

.firebugBlockBackgroundColor {
    background-color: transparent !important;
}

.firebugResetStyles:before, .firebugResetStyles:after {
    content: "" !important;
}
/**actual styling to be modified by firebug theme**/
.firebugCanvas {
    display: none !important;
}

/* * * * * * * * * * * * * * * * * * * * * * * * * * * * * * * * * * * * * * * * * * * * * * * * */
.firebugLayoutBox {
    width: auto !important;
    position: static !important;
}

.firebugLayoutBoxOffset {
    opacity: 0.8 !important;
    position: fixed !important;
}

.firebugLayoutLine {
    opacity: 0.4 !important;
    background-color: #000000 !important;
}

.firebugLayoutLineLeft, .firebugLayoutLineRight {
    width: 1px !important;
    height: 100% !important;
}

.firebugLayoutLineTop, .firebugLayoutLineBottom {
    width: 100% !important;
    height: 1px !important;
}

.firebugLayoutLineTop {
    margin-top: -1px !important;
    border-top: 1px solid #999999 !important;
}

.firebugLayoutLineRight {
    border-right: 1px solid #999999 !important;
}

.firebugLayoutLineBottom {
    border-bottom: 1px solid #999999 !important;
}

.firebugLayoutLineLeft {
    margin-left: -1px !important;
    border-left: 1px solid #999999 !important;
}

/* * * * * * * * * * * * * * * * * * * * * * * * * * * * * * * * * * * * * * * * * * * * * * * * */
.firebugLayoutBoxParent {
    border-top: 0 none !important;
    border-right: 1px dashed #E00 !important;
    border-bottom: 1px dashed #E00 !important;
    border-left: 0 none !important;
    position: fixed !important;
    width: auto !important;
}

.firebugRuler{
    position: absolute !important;
}

.firebugRulerH {
    top: -15px !important;
    left: 0 !important;
    width: 100% !important;
    height: 14px !important;
    background: url("data:image/png,%89PNG%0D%0A%1A%0A%00%00%00%0DIHDR%00%00%13%88%00%00%00%0E%08%02%00%00%00L%25a%0A%00%00%00%04gAMA%00%00%D6%D8%D4OX2%00%00%00%19tEXtSoftware%00Adobe%20ImageReadyq%C9e%3C%00%00%04%F8IDATx%DA%EC%DD%D1n%E2%3A%00E%D1%80%F8%FF%EF%E2%AF2%95%D0D4%0E%C1%14%B0%8Fa-%E9%3E%CC%9C%87n%B9%81%A6W0%1C%A6i%9A%E7y%0As8%1CT%A9R%A5J%95*U%AAT%A9R%A5J%95*U%AAT%A9R%A5J%95*U%AAT%A9R%A5J%95*U%AAT%A9R%A5J%95*U%AAT%A9R%A5J%95*U%AAT%A9R%A5J%95*U%AATE9%FE%FCw%3E%9F%AF%2B%2F%BA%97%FDT%1D~K(%5C%9D%D5%EA%1B%5C%86%B5%A9%BDU%B5y%80%ED%AB*%03%FAV9%AB%E1%CEj%E7%82%EF%FB%18%BC%AEJ8%AB%FA'%D2%BEU9%D7U%ECc0%E1%A2r%5DynwVi%CFW%7F%BB%17%7Dy%EACU%CD%0E%F0%FA%3BX%FEbV%FEM%9B%2B%AD%BE%AA%E5%95v%AB%AA%E3E5%DCu%15rV9%07%B5%7F%B5w%FCm%BA%BE%AA%FBY%3D%14%F0%EE%C7%60%0EU%AAT%A9R%A5J%95*U%AAT%A9R%A5J%95*U%AAT%A9R%A5J%95*U%AAT%A9R%A5J%95*U%AAT%A9R%A5JU%88%D3%F5%1F%AE%DF%3B%1B%F2%3E%DAUCNa%F92%D02%AC%7Dm%F9%3A%D4%F2%8B6%AE*%BF%5C%C2Ym~9g5%D0Y%95%17%7C%C8c%B0%7C%18%26%9CU%CD%13i%F7%AA%90%B3Z%7D%95%B4%C7%60%E6E%B5%BC%05%B4%FBY%95U%9E%DB%FD%1C%FC%E0%9F%83%7F%BE%17%7DkjMU%E3%03%AC%7CWj%DF%83%9An%BCG%AE%F1%95%96yQ%0Dq%5Dy%00%3Et%B5'%FC6%5DS%95pV%95%01%81%FF'%07%00%00%00%00%00%00%00%00%00%F8x%C7%F0%BE%9COp%5D%C9%7C%AD%E7%E6%EBV%FB%1E%E0(%07%E5%AC%C6%3A%ABi%9C%8F%C6%0E9%AB%C0'%D2%8E%9F%F99%D0E%B5%99%14%F5%0D%CD%7F%24%C6%DEH%B8%E9rV%DFs%DB%D0%F7%00k%FE%1D%84%84%83J%B8%E3%BA%FB%EF%20%84%1C%D7%AD%B0%8E%D7U%C8Y%05%1E%D4t%EF%AD%95Q%BF8w%BF%E9%0A%BF%EB%03%00%00%00%00%00%00%00%00%00%B8vJ%8E%BB%F5%B1u%8Cx%80%E1o%5E%CA9%AB%CB%CB%8E%03%DF%1D%B7T%25%9C%D5(%EFJM8%AB%CC'%D2%B2*%A4s%E7c6%FB%3E%FA%A2%1E%80~%0E%3E%DA%10x%5D%95Uig%15u%15%ED%7C%14%B6%87%A1%3B%FCo8%A8%D8o%D3%ADO%01%EDx%83%1A~%1B%9FpP%A3%DC%C6'%9C%95gK%00%00%00%00%00%00%00%00%00%20%D9%C9%11%D0%C0%40%AF%3F%EE%EE%92%94%D6%16X%B5%BCMH%15%2F%BF%D4%A7%C87%F1%8E%F2%81%AE%AAvzr%DA2%ABV%17%7C%E63%83%E7I%DC%C6%0Bs%1B%EF6%1E%00%00%00%00%00%00%00%00%00%80cr%9CW%FF%7F%C6%01%0E%F1%CE%A5%84%B3%CA%BC%E0%CB%AA%84%CE%F9%BF)%EC%13%08WU%AE%AB%B1%AE%2BO%EC%8E%CBYe%FE%8CN%ABr%5Dy%60~%CFA%0D%F4%AE%D4%BE%C75%CA%EDVB%EA(%B7%F1%09g%E5%D9%12%00%00%00%00%00%00%00%00%00H%F6%EB%13S%E7y%5E%5E%FB%98%F0%22%D1%B2'%A7%F0%92%B1%BC%24z3%AC%7Dm%60%D5%92%B4%7CEUO%5E%F0%AA*%3BU%B9%AE%3E%A0j%94%07%A0%C7%A0%AB%FD%B5%3F%A0%F7%03T%3Dy%D7%F7%D6%D4%C0%AAU%D2%E6%DFt%3F%A8%CC%AA%F2%86%B9%D7%F5%1F%18%E6%01%F8%CC%D5%9E%F0%F3z%88%AA%90%EF%20%00%00%00%00%00%00%00%00%00%C0%A6%D3%EA%CFi%AFb%2C%7BB%0A%2B%C3%1A%D7%06V%D5%07%A8r%5D%3D%D9%A6%CAu%F5%25%CF%A2%99%97zNX%60%95%AB%5DUZ%D5%FBR%03%AB%1C%D4k%9F%3F%BB%5C%FF%81a%AE%AB'%7F%F3%EA%FE%F3z%94%AA%D8%DF%5B%01%00%00%00%00%00%00%00%00%00%8E%FB%F3%F2%B1%1B%8DWU%AAT%A9R%A5J%95*U%AAT%A9R%A5J%95*U%AAT%A9R%A5J%95*U%AAT%A9R%A5J%95*U%AAT%A9R%A5J%95*U%AAT%A9R%A5J%95*U%AAT%A9R%A5J%95*UiU%C7%BBe%E7%F3%B9%CB%AAJ%95*U%AAT%A9R%A5J%95*U%AAT%A9R%A5J%95*U%AAT%A9R%A5J%95*U%AAT%A9R%A5J%95*U%AAT%A9R%A5J%95*U%AAT%A9R%A5J%95*U%AAT%A9R%A5*%AAj%FD%C6%D4%5Eo%90%B5Z%ADV%AB%D5j%B5Z%ADV%AB%D5j%B5Z%ADV%AB%D5j%B5Z%ADV%AB%D5j%B5Z%ADV%AB%D5j%B5Z%ADV%AB%D5j%B5Z%ADV%AB%D5j%B5%86%AF%1B%9F%98%DA%EBm%BBV%AB%D5j%B5Z%ADV%AB%D5j%B5Z%ADV%AB%D5j%B5Z%ADV%AB%D5j%B5Z%ADV%AB%D5j%B5Z%ADV%AB%D5j%B5Z%ADV%AB%D5j%B5Z%AD%D6%E4%F58%01%00%00%00%00%00%00%00%00%00%00%00%00%00%40%85%7F%02%0C%008%C2%D0H%16j%8FX%00%00%00%00IEND%AEB%60%82") repeat-x !important;
    border-top: 1px solid #BBBBBB !important;
    border-right: 1px dashed #BBBBBB !important;
    border-bottom: 1px solid #000000 !important;
}

.firebugRulerV {
    top: 0 !important;
    left: -15px !important;
    width: 14px !important;
    height: 100% !important;
    background: url("data:image/png,%89PNG%0D%0A%1A%0A%00%00%00%0DIHDR%00%00%00%0E%00%00%13%88%08%02%00%00%00%0E%F5%CB%10%00%00%00%04gAMA%00%00%D6%D8%D4OX2%00%00%00%19tEXtSoftware%00Adobe%20ImageReadyq%C9e%3C%00%00%06~IDATx%DA%EC%DD%D1v%A20%14%40Qt%F1%FF%FF%E4%97%D9%07%3BT%19%92%DC%40(%90%EEy%9A5%CB%B6%E8%F6%9Ac%A4%CC0%84%FF%DC%9E%CF%E7%E3%F1%88%DE4%F8%5D%C7%9F%2F%BA%DD%5E%7FI%7D%F18%DDn%BA%C5%FB%DF%97%BFk%F2%10%FF%FD%B4%F2M%A7%FB%FD%FD%B3%22%07p%8F%3F%AE%E3%F4S%8A%8F%40%EEq%9D%BE8D%F0%0EY%A1Uq%B7%EA%1F%81%88V%E8X%3F%B4%CEy%B7h%D1%A2E%EBohU%FC%D9%AF2fO%8BBeD%BE%F7X%0C%97%A4%D6b7%2Ck%A5%12%E3%9B%60v%B7r%C7%1AI%8C%BD%2B%23r%00c0%B2v%9B%AD%CA%26%0C%1Ek%05A%FD%93%D0%2B%A1u%8B%16-%95q%5Ce%DCSO%8E%E4M%23%8B%F7%C2%FE%40%BB%BD%8C%FC%8A%B5V%EBu%40%F9%3B%A72%FA%AE%8C%D4%01%CC%B5%DA%13%9CB%AB%E2I%18%24%B0n%A9%0CZ*Ce%9C%A22%8E%D8NJ%1E%EB%FF%8F%AE%CAP%19*%C3%BAEKe%AC%D1%AAX%8C*%DEH%8F%C5W%A1e%AD%D4%B7%5C%5B%19%C5%DB%0D%EF%9F%19%1D%7B%5E%86%BD%0C%95%A12%AC%5B*%83%96%CAP%19%F62T%86%CAP%19*%83%96%CA%B8Xe%BC%FE)T%19%A1%17xg%7F%DA%CBP%19*%C3%BA%A52T%86%CAP%19%F62T%86%CA%B0n%A9%0CZ%1DV%C6%3D%F3%FCH%DE%B4%B8~%7F%5CZc%F1%D6%1F%AF%84%F9%0F6%E6%EBVt9%0E~%BEr%AF%23%B0%97%A12T%86%CAP%19%B4T%86%CA%B8Re%D8%CBP%19*%C3%BA%A52huX%19%AE%CA%E5%BC%0C%7B%19*CeX%B7h%A9%0C%95%E1%BC%0C%7B%19*CeX%B7T%06%AD%CB%5E%95%2B%BF.%8F%C5%97%D5%E4%7B%EE%82%D6%FB%CF-%9C%FD%B9%CF%3By%7B%19%F62T%86%CA%B0n%D1R%19*%A3%D3%CA%B0%97%A12T%86uKe%D0%EA%B02*%3F1%99%5DB%2B%A4%B5%F8%3A%7C%BA%2B%8Co%7D%5C%EDe%A8%0C%95a%DDR%19%B4T%C66%82fA%B2%ED%DA%9FC%FC%17GZ%06%C9%E1%B3%E5%2C%1A%9FoiB%EB%96%CA%A0%D5qe4%7B%7D%FD%85%F7%5B%ED_%E0s%07%F0k%951%ECr%0D%B5C%D7-g%D1%A8%0C%EB%96%CA%A0%A52T%C6)*%C3%5E%86%CAP%19%D6-%95A%EB*%95q%F8%BB%E3%F9%AB%F6%E21%ACZ%B7%22%B7%9B%3F%02%85%CB%A2%5B%B7%BA%5E%B7%9C%97%E1%BC%0C%EB%16-%95%A12z%AC%0C%BFc%A22T%86uKe%D0%EA%B02V%DD%AD%8A%2B%8CWhe%5E%AF%CF%F5%3B%26%CE%CBh%5C%19%CE%CB%B0%F3%A4%095%A1%CAP%19*Ce%A8%0C%3BO*Ce%A8%0C%95%A12%3A%AD%8C%0A%82%7B%F0v%1F%2FD%A9%5B%9F%EE%EA%26%AF%03%CA%DF9%7B%19*Ce%A8%0C%95%A12T%86%CA%B8Ze%D8%CBP%19*Ce%A8%0C%95%D1ae%EC%F7%89I%E1%B4%D7M%D7P%8BjU%5C%BB%3E%F2%20%D8%CBP%19*Ce%A8%0C%95%A12T%C6%D5*%C3%5E%86%CAP%19*Ce%B4O%07%7B%F0W%7Bw%1C%7C%1A%8C%B3%3B%D1%EE%AA%5C%D6-%EBV%83%80%5E%D0%CA%10%5CU%2BD%E07YU%86%CAP%19*%E3%9A%95%91%D9%A0%C8%AD%5B%EDv%9E%82%FFKOee%E4%8FUe%A8%0C%95%A12T%C6%1F%A9%8C%C8%3D%5B%A5%15%FD%14%22r%E7B%9F%17l%F8%BF%ED%EAf%2B%7F%CF%ECe%D8%CBP%19*Ce%A8%0C%95%E1%93~%7B%19%F62T%86%CAP%19*Ce%A8%0C%E7%13%DA%CBP%19*Ce%A8%0CZf%8B%16-Z%B4h%D1R%19f%8B%16-Z%B4h%D1R%19%B4%CC%16-Z%B4h%D1R%19%B4%CC%16-Z%B4h%D1%A2%A52%CC%16-Z%B4h%D1%A2%A52h%99-Z%B4h%D1%A2%A52h%99-Z%B4h%D1%A2EKe%98-Z%B4h%D1%A2EKe%D02%5B%B4h%D1%A2EKe%D02%5B%B4h%D1%A2E%8B%96%CA0%5B%B4h%D1%A2E%8B%96%CA%A0e%B6h%D1%A2E%8B%96%CA%A0e%B6h%D1%A2E%8B%16-%95a%B6h%D1%A2E%8B%16-%95A%CBl%D1%A2E%8B%16-%95A%CBl%D1%A2E%8B%16-Z*%C3l%D1%A2E%8B%16-Z*%83%96%D9%A2E%8B%16-Z*%83%96%D9%A2E%8B%16-Z%B4T%86%D9%A2E%8B%16-Z%B4T%06-%B3E%8B%16-Z%B4T%06-%B3E%8B%16-Z%B4h%A9%0C%B3E%8B%16-Z%B4h%A9%0CZf%8B%16-Z%B4h%A9%0CZf%8B%16-Z%B4h%D1R%19f%8B%16-Z%B4h%D1R%19%B4%CC%16-Z%B4h%D1R%19%B4%CC%16-Z%B4h%D1%A2%A52%CC%16-Z%B4h%D1%A2%A52h%99-Z%B4h%D1%A2%A52h%99-Z%B4h%D1%A2EKe%98-Z%B4h%D1%A2EKe%D02%5B%B4h%D1%A2EKe%D02%5B%B4h%D1%A2E%8B%96%CA0%5B%B4h%D1%A2E%8B%96%CA%A0e%B6h%D1%A2E%8B%96%CA%A0e%B6h%D1%A2E%8B%16-%95a%B6h%D1%A2E%8B%16-%95A%CBl%D1%A2E%8B%16-%95A%CBl%D1%A2E%8B%16-Z*%C3l%D1%A2E%8B%16-Z*%83%96%D9%A2E%8B%16-Z*%83%96%D9%A2E%8B%16-Z%B4T%86%D9%A2E%8B%16-Z%B4T%06-%B3E%8B%16-Z%B4T%06-%B3E%8B%16-Z%B4h%A9%0C%B3E%8B%16-Z%B4h%A9%0CZf%8B%16-Z%B4h%A9%0CZf%8B%16-Z%B4h%D1R%19f%8B%16-Z%B4h%D1R%19%B4%CC%16-Z%B4h%D1R%19%B4%CC%16-Z%B4h%D1%A2%A52%CC%16-Z%B4h%D1%A2%A52h%99-Z%B4h%D1%A2%A52h%99-Z%B4h%D1%A2EKe%98-Z%B4h%D1%A2EKe%D02%5B%B4h%D1%A2EKe%D02%5B%B4h%D1%A2E%8B%96%CA0%5B%B4h%D1%A2E%8B%96%CA%A0e%B6h%D1%A2E%8B%96%CA%A0e%B6h%D1%A2E%8B%16-%95a%B6h%D1%A2E%8B%16-%95A%CBl%D1%A2E%8B%16-%95A%CBl%D1%A2E%8B%16-Z*%C3l%D1%A2E%8B%16-Z*%83%96%D9%A2E%8B%16-Z*%83%96%D9%A2E%8B%16-Z%B4T%86%D9%A2E%8B%16-Z%B4T%06-%B3E%8B%16-Z%B4%AE%A4%F5%25%C0%00%DE%BF%5C'%0F%DA%B8q%00%00%00%00IEND%AEB%60%82") repeat-y !important;
    border-left: 1px solid #BBBBBB !important;
    border-right: 1px solid #000000 !important;
    border-bottom: 1px dashed #BBBBBB !important;
}

.overflowRulerX &gt; .firebugRulerV {
    left: 0 !important;
}

.overflowRulerY &gt; .firebugRulerH {
    top: 0 !important;
}

/* * * * * * * * * * * * * * * * * * * * * * * * * * * * * * * * * * * * * * * * * * * * * * * * */
.fbProxyElement {
    position: fixed !important;
    pointer-events: auto !important;
}
</style></svg>